<?xml version="1.0" encoding="UTF-8"?><svg id="OBJECTS" xmlns="http://www.w3.org/2000/svg" viewBox="0 0 32.16 32.16"><defs><style>.cls-1{fill:#fff;}.cls-1,.cls-2{stroke-width:0px;}.cls-2{fill:#ededed;}</style></defs><path class="cls-1" d="m6.88,6.69v22.56c-4.01-1.41-6.88-5.23-6.88-9.73V2.32h4.36l2.52,4.36Z"/><polygon class="cls-1" points="32.16 2.32 28.19 9.2 26.2 12.64 22.23 5.77 23.47 3.62 24.22 2.32 32.16 2.32"/><polygon class="cls-1" points="20.24 9.21 18.16 12.82 16.28 16.08 12.43 9.42 10.32 5.76 8.33 2.32 16.27 2.32 20.24 9.21"/><polygon class="cls-1" points="32.16 29.84 24.22 29.84 22.23 26.4 26.2 19.52 29.92 25.97 32.16 29.84"/><path class="cls-2" d="m20.24,9.21l-2.09,3.61-1.88,3.26-1.99,3.44-1.01,1.75h0c-.6,1-1.7,1.68-2.95,1.68-1.9,0-3.44-1.54-3.44-3.44v9.73c.5.18,1.02.32,1.56.42.61.12,1.24.18,1.88.18,3.14,0,5.95-1.4,7.84-3.62.41-.48.77-.99,1.09-1.54h0s.99-1.72.99-1.72l3.97-6.88-3.97-6.88Z"/></svg>